<mxfile host="app.diagrams.net" modified="2022-05-22T05:39:19.508Z" agent="5.0 (Macintosh; Intel Mac OS X 10_15_7) AppleWebKit/537.36 (KHTML, like Gecko) Chrome/101.0.4951.64 Safari/537.36" etag="sL0grdb4Fuf2OVWMuhMs" version="18.0.5" type="github">
  <diagram id="3228e29e-7158-1315-38df-8450db1d8a1d" name="Page-1">
    <mxGraphModel dx="665" dy="1249" grid="0" gridSize="10" guides="1" tooltips="1" connect="1" arrows="1" fold="1" page="1" pageScale="1" pageWidth="600" pageHeight="550" background="#EFF1F3" math="0" shadow="0">
      <root>
        <mxCell id="0" />
        <mxCell id="1" parent="0" />
        <mxCell id="Zxyhw3o_makbFYxT9f12-17" value="" style="rounded=1;whiteSpace=wrap;html=1;dashed=1;strokeWidth=5;fillColor=none;" parent="1" vertex="1">
          <mxGeometry x="35" y="-364" width="528" height="329" as="geometry" />
        </mxCell>
        <mxCell id="Zxyhw3o_makbFYxT9f12-14" value="&lt;span style=&quot;color: rgb(51 , 51 , 51) ; font-family: &amp;#34;open sans&amp;#34; , &amp;#34;clear sans&amp;#34; , &amp;#34;helvetica neue&amp;#34; , &amp;#34;helvetica&amp;#34; , &amp;#34;arial&amp;#34; , sans-serif ; font-size: 18px&quot;&gt;&lt;font style=&quot;font-size: 18px&quot;&gt;TCP/IP&lt;br&gt;协议栈&lt;/font&gt;&lt;/span&gt;" style="rounded=1;whiteSpace=wrap;html=1;strokeColor=none;fontSize=18;labelBackgroundColor=none;fillColor=#E6D7C2;" parent="1" vertex="1">
          <mxGeometry x="98" y="-266" width="400" height="217" as="geometry" />
        </mxCell>
        <mxCell id="pCjDIv-f0e-wGzuPs2K4-11" value="&lt;font style=&quot;font-size: 22px&quot; color=&quot;#ffffff&quot;&gt;发送缓冲区&lt;/font&gt;" style="rounded=1;whiteSpace=wrap;html=1;fillColor=#4A919B;strokeColor=none;" parent="1" vertex="1">
          <mxGeometry x="122" y="-187.5" width="120" height="60" as="geometry" />
        </mxCell>
        <mxCell id="Zxyhw3o_makbFYxT9f12-7" value="" style="rounded=1;whiteSpace=wrap;html=1;dashed=1;strokeWidth=5;fillColor=none;" parent="1" vertex="1">
          <mxGeometry x="35" y="-514" width="530" height="137" as="geometry" />
        </mxCell>
        <mxCell id="Zxyhw3o_makbFYxT9f12-2" value="&lt;font style=&quot;font-size: 18px&quot;&gt;socket接口&lt;/font&gt;" style="rounded=1;whiteSpace=wrap;html=1;strokeColor=none;labelBackgroundColor=none;fillColor=#FDD276;" parent="1" vertex="1">
          <mxGeometry x="57" y="-404" width="483" height="88" as="geometry" />
        </mxCell>
        <mxCell id="Zxyhw3o_makbFYxT9f12-11" value="&lt;font style=&quot;font-size: 24px&quot;&gt;用户态&lt;/font&gt;" style="text;html=1;strokeColor=none;fillColor=none;align=center;verticalAlign=middle;whiteSpace=wrap;rounded=0;dashed=1;" parent="1" vertex="1">
          <mxGeometry x="38" y="-495" width="132.5" height="20" as="geometry" />
        </mxCell>
        <mxCell id="Zxyhw3o_makbFYxT9f12-12" value="&lt;font style=&quot;font-size: 24px&quot;&gt;内核态&lt;/font&gt;" style="text;html=1;strokeColor=none;align=center;verticalAlign=middle;whiteSpace=wrap;rounded=0;dashed=1;labelBackgroundColor=none;" parent="1" vertex="1">
          <mxGeometry x="53.25" y="-298" width="102" height="20" as="geometry" />
        </mxCell>
        <mxCell id="222Te1zxGotTQ1m0-dcR-1" value="&lt;span style=&quot;color: rgb(51 , 51 , 51) ; font-family: &amp;#34;open sans&amp;#34; , &amp;#34;clear sans&amp;#34; , &amp;#34;helvetica neue&amp;#34; , &amp;#34;helvetica&amp;#34; , &amp;#34;arial&amp;#34; , sans-serif&quot;&gt;&lt;font style=&quot;font-size: 18px&quot;&gt;send&lt;/font&gt;&lt;/span&gt;" style="rounded=1;whiteSpace=wrap;html=1;strokeColor=none;fillColor=#9AC7BF;labelBackgroundColor=none;" parent="1" vertex="1">
          <mxGeometry x="101" y="-373" width="86" height="36" as="geometry" />
        </mxCell>
        <mxCell id="222Te1zxGotTQ1m0-dcR-2" value="&lt;span style=&quot;color: rgb(51 , 51 , 51) ; font-family: &amp;#34;open sans&amp;#34; , &amp;#34;clear sans&amp;#34; , &amp;#34;helvetica neue&amp;#34; , &amp;#34;helvetica&amp;#34; , &amp;#34;arial&amp;#34; , sans-serif&quot;&gt;&lt;font style=&quot;font-size: 18px&quot;&gt;recv&lt;/font&gt;&lt;/span&gt;" style="rounded=1;whiteSpace=wrap;html=1;strokeColor=none;fillColor=#9AC7BF;labelBackgroundColor=none;" parent="1" vertex="1">
          <mxGeometry x="412" y="-373" width="86" height="36" as="geometry" />
        </mxCell>
        <mxCell id="222Te1zxGotTQ1m0-dcR-3" value="" style="aspect=fixed;pointerEvents=1;shadow=0;dashed=0;html=1;strokeColor=none;labelPosition=center;verticalLabelPosition=bottom;verticalAlign=top;align=center;shape=mxgraph.mscae.enterprise.code_file;fillColor=#535E80;" parent="1" vertex="1">
          <mxGeometry x="253.91000000000003" y="-505" width="89.18" height="91" as="geometry" />
        </mxCell>
        <mxCell id="222Te1zxGotTQ1m0-dcR-4" value="" style="curved=1;endArrow=classic;html=1;strokeColor=#535E80;strokeWidth=5;dashed=1;" parent="1" edge="1">
          <mxGeometry width="50" height="50" relative="1" as="geometry">
            <mxPoint x="241" y="-431" as="sourcePoint" />
            <mxPoint x="213" y="-183" as="targetPoint" />
            <Array as="points">
              <mxPoint x="193" y="-401" />
              <mxPoint x="171" y="-331" />
            </Array>
          </mxGeometry>
        </mxCell>
        <mxCell id="222Te1zxGotTQ1m0-dcR-5" value="" style="curved=1;endArrow=none;html=1;strokeColor=#535E80;strokeWidth=5;dashed=1;entryX=0.142;entryY=0.022;entryDx=0;entryDy=0;entryPerimeter=0;startArrow=classic;startFill=1;endFill=0;" parent="1" target="pCjDIv-f0e-wGzuPs2K4-12" edge="1">
          <mxGeometry width="50" height="50" relative="1" as="geometry">
            <mxPoint x="353" y="-434" as="sourcePoint" />
            <mxPoint x="353" y="-276" as="targetPoint" />
            <Array as="points">
              <mxPoint x="391" y="-419" />
              <mxPoint x="418" y="-380" />
              <mxPoint x="418" y="-305" />
            </Array>
          </mxGeometry>
        </mxCell>
        <mxCell id="pCjDIv-f0e-wGzuPs2K4-12" value="&lt;font style=&quot;font-size: 22px&quot; color=&quot;#ffffff&quot;&gt;接收缓冲区&lt;/font&gt;" style="rounded=1;whiteSpace=wrap;html=1;fillColor=#4A919B;strokeColor=none;" parent="1" vertex="1">
          <mxGeometry x="358" y="-191" width="120" height="60" as="geometry" />
        </mxCell>
      </root>
    </mxGraphModel>
  </diagram>
</mxfile>
